<svg xmlns="http://www.w3.org/2000/svg" version="1.0" width="1280.000000pt" height="1280.000000pt" viewBox="0 0 1280.000000 1280.000000" preserveAspectRatio="xMidYMid meet">
<g transform="translate(0.000000,1280.000000) scale(0.100000,-0.100000)" fill="#fff" stroke="none">
<path d="M6085 12794 c-486 -35 -753 -72 -1095 -150 -795 -182 -1516 -494 -2175 -941 -1105 -751 -1950 -1824 -2414 -3069 -347 -932 -472 -1957 -360 -2949 244 -2161 1553 -4035 3499 -5010 731 -367 1449 -567 2355 -657 174 -17 836 -17 1010 0 839 83 1479 251 2170 568 1186 544 2192 1457 2854 2589 963 1646 1137 3669 470 5459 -672 1803 -2140 3225 -3954 3831 -496 166 -935 258 -1479 311 -150 14 -759 27 -881 18z m735 -1614 c1134 -105 2173 -592 2971 -1391 724 -726 1184 -1631 1349 -2650 39 -248 53 -433 54 -734 0 -451 -39 -775 -146 -1200 -81 -325 -191 -621 -348 -940 -95 -192 -257 -476 -276 -482 -12 -4 -6639 6623 -6639 6639 0 17 255 166 455 267 578 289 1202 458 1855 501 156 10 565 5 725 -10z m2196 -8807 c-27 -29 -298 -183 -481 -273 -526 -259 -1055 -411 -1665 -476 -190 -21 -696 -24 -875 -6 -463 48 -835 131 -1243 279 -330 119 -709 310 -1002 506 -879 588 -1545 1449 -1884 2435 -183 534 -259 996 -259 1572 0 316 10 464 54 744 97 631 344 1291 675 1807 l46 72 3322 -3324 c2503 -2504 3320 -3327 3312 -3336z"/>
</g>
</svg>