<svg xmlns="http://www.w3.org/2000/svg" id="Layer_1" enable-background="new 0 0 511.999 511.999" height="512" viewBox="0 0 511.999 511.999" width="512"><g><path d="m435.539 186.623c0-98.159-79.139-177.877-177.233-179.11-98.133-1.233-179.711 77.305-181.804 175.197-1.243 58.144 25.298 110.147 67.28 143.729v24.831c0 24.936 20.261 45.15 45.255 45.15h133.924c24.994 0 45.255-20.215 45.255-45.15v-24.831c41.039-32.827 67.323-83.256 67.323-139.816z" fill="#ce9898"/><path d="m258.307 7.513c-7.515-.094-14.932.284-22.224 1.098 89.704 9.962 159.457 85.858 159.457 178.011 0 56.561-26.284 106.989-67.322 139.817v24.831c0 24.936-20.261 45.151-45.255 45.151h40c24.994 0 45.255-20.215 45.255-45.151v-24.831c41.038-32.827 67.322-83.256 67.322-139.817-.001-98.158-79.14-177.876-177.233-179.109z" fill="#ce9898"/><g><g><g><path d="m274.818 504.499h-37.636c-16.839 0-30.489-13.65-30.489-30.489v-46.789h98.614v46.789c0 16.839-13.651 30.489-30.489 30.489z" fill="#59a1a5"/><path d="m265.307 427.221v46.789c0 16.442-13.017 29.837-29.307 30.459.393.015.785.03 1.182.03h37.636c16.839 0 30.489-13.65 30.489-30.489v-46.789z" fill="#419296"/><path d="m305.733 464.042h-99.467c-13.422 0-24.303-10.881-24.303-24.303v-43.476h148.073v43.476c0 13.422-10.881 24.303-24.303 24.303z" fill="#b5e8e0"/><path d="m290.036 396.263v43.476c0 13.422-10.881 24.303-24.303 24.303h40c13.422 0 24.303-10.881 24.303-24.303v-43.476z" fill="#97dbd1"/></g></g></g><g><path d="m389.036 55.443c-34.789-35.123-81.183-54.807-130.635-55.428-33.96-.424-67.382 8.422-96.678 25.591-3.574 2.095-4.773 6.689-2.679 10.263s6.689 4.773 10.263 2.679c26.941-15.789 57.681-23.918 88.905-23.534 45.49.572 88.166 18.679 120.167 50.986 32.023 32.33 49.659 75.169 49.659 120.624 0 52.341-23.512 101.167-64.506 133.96-1.779 1.423-2.815 3.578-2.815 5.856v24.831c0 19.63-15.146 35.791-34.395 37.493h-63.582v-194.218h69.389c4.143 0 7.5-3.357 7.5-7.5s-3.357-7.5-7.5-7.5h-152.259c-4.143 0-7.5 3.357-7.5 7.5s3.357 7.5 7.5 7.5h67.871v194.218h-62.064c-19.249-1.703-34.395-17.863-34.395-37.493v-24.831c0-2.278-1.036-4.434-2.815-5.856-42.12-33.695-65.617-83.89-64.467-137.714.995-46.506 20.484-89.718 54.877-121.678 3.034-2.819 3.208-7.565.389-10.6-2.818-3.033-7.564-3.209-10.6-.389-37.392 34.747-58.58 81.748-59.662 132.347-1.226 57.319 23.253 110.853 67.278 147.451v21.27c0 23.986 16.161 44.262 38.182 50.591v18.722c-10.46.31-11.351 14.672 0 15-.826 16.073 8.426 31.437 24.729 35.156-.966 21.809 15.538 41.26 37.989 41.26h37.637c22.547 0 38.812-19.444 37.989-41.26 16.285-3.715 25.561-19.127 24.729-35.156 12.713 0 12.963-15 0-15v-18.722c22.021-6.329 38.182-26.605 38.182-50.591v-21.271c42.833-35.616 67.321-87.663 67.321-143.377-.001-49.436-19.18-96.023-54.004-131.18zm-66.5 384.296c0 9.265-7.538 16.803-16.803 16.803h-12.819c-9.697 0-9.697 15 0 15h4.894c.863 13.38-9.223 25.457-22.989 25.457h-37.637c-13.766 0-23.852-12.077-22.989-25.457h38.794c9.697 0 9.697-15 0-15h-46.72c-11.422 0-17.909-10.547-16.803-20.959h133.072zm-133.072-19.156v-16.662h133.072v16.662z"/><path d="m50.999 188.046c0-4.143-3.357-7.5-7.5-7.5h-36c-9.697 0-9.697 15 0 15h36c4.143 0 7.5-3.358 7.5-7.5z"/><path d="m57.194 241.008c-1.071-4.001-5.184-6.38-9.186-5.303l-34.773 9.317c-9.243 2.475-5.074 16.896 3.883 14.488l34.773-9.317c4.001-1.071 6.375-5.184 5.303-9.185z"/><path d="m66.641 287.816-31.178 18c-8.198 4.734-.761 17.76 7.5 12.99l31.178-18c8.398-4.849.897-17.839-7.5-12.99z"/><path d="m13.235 130.789 34.773 9.317c9.037 2.429 13.148-12.007 3.883-14.488l-34.773-9.317c-9.366-2.521-13.249 11.98-3.883 14.488z"/><path d="m35.463 69.994 31.178 18c8.118 4.683 15.879-8.152 7.5-12.99l-31.178-18c-8.4-4.846-15.897 8.141-7.5 12.99z"/><path d="m504.499 180.546h-36c-9.697 0-9.697 15 0 15h36c9.698 0 9.698-15 0-15z"/><path d="m498.764 245.022-34.773-9.317c-9.366-2.521-13.249 11.98-3.883 14.488l34.773 9.317c9.038 2.43 13.148-12.007 3.883-14.488z"/><path d="m476.536 305.816-31.178-18c-8.399-4.848-15.897 8.141-7.5 12.99l31.178 18c8.118 4.684 15.879-8.151 7.5-12.99z"/><path d="m454.805 134.804c.991 3.7 5.513 6.29 9.186 5.303l34.773-9.317c9.366-2.508 5.484-17.009-3.883-14.488l-34.773 9.317c-4.001 1.07-6.375 5.184-5.303 9.185z"/><path d="m441.615 89c1.272 0 2.562-.324 3.743-1.006l31.178-18c8.398-4.849.899-17.837-7.5-12.99l-31.178 18c-6.71 3.874-3.479 13.996 3.757 13.996z"/></g></g></svg>