<svg xmlns="http://www.w3.org/2000/svg" height="512pt" viewBox="0 0 512.00051 512" width="512pt"><path d="m229.824219 438.203125c-11.578125-1.664063-22.972657-4.417969-34.03125-8.222656l10.445312-30.257813c9.128907 3.152344 18.539063 5.425782 28.097657 6.785156zm69.566406-3.3125-7.535156-31.101563c9.375-2.269531 18.511719-5.429687 27.28125-9.441406l13.3125 29.089844c-10.625 4.871094-21.695313 8.707031-33.058594 11.453125zm-163.886719-39.804687c-8.835937-7.65625-16.921875-16.136719-24.144531-25.328126l25.152344-19.761718c5.972656 7.59375 12.652343 14.601562 19.953125 20.929687zm253.648438-12.050782-23.152344-22.078125c6.664062-7 12.65625-14.613281 17.886719-22.738281l26.914062 17.34375c-6.34375 9.816406-13.589843 19.011719-21.648437 27.472656zm-309.746094-75.199218c-3.269531-11.210938-5.472656-22.707032-6.574219-34.335938l31.839844-3.039062c.925781 9.617187 2.75 19.125 5.457031 28.398437zm357.394531-16.992188-31.519531-6c1.8125-9.492188 2.722656-19.136719 2.71875-28.800781h32c.027344 11.675781-1.042969 23.328125-3.199219 34.800781zm-326.6875-77.648438-30.722656-8.992187c3.296875-11.226563 7.65625-22.113281 13.023437-32.511719l28.449219 14.703125c-4.4375 8.566407-8.039062 17.542969-10.75 26.800781zm46.398438-72-20.992188-24.207031c8.828125-7.65625 18.355469-14.460937 28.464844-20.320312l16 27.710937c-8.351563 4.824219-16.222656 10.441406-23.503906 16.769532zm187.726562-8.910156c-7.867187-5.613281-16.25-10.46875-25.039062-14.496094l13.3125-29.089843c10.628906 4.867187 20.769531 10.734375 30.289062 17.519531zm-109.902343-26.640625-4.496094-31.695312c11.570312-1.601563 23.261718-2.136719 34.929687-1.601563l-1.503906 32c-9.664063-.46875-19.347656-.035156-28.929687 1.296875zm0 0" fill="#d7e1f2"/><g fill="#e76e54"><path d="m512 64.042969h-112v112h32v-58.078125c69.195312 88.867187 61.1875 215.398437-18.660156 294.832031s-206.417969 86.785156-294.925782 17.128906c-88.507812-69.65625-111.109374-194.410156-52.667968-290.691406 58.445312-96.28125 179.550781-133.800781 282.191406-87.429687 7.726562 3.683593 16.984375.71875 21.132812-6.769532 2.121094-3.976562 2.480469-8.65625.992188-12.910156-1.484375-4.257812-4.679688-7.695312-8.816406-9.488281-103.453125-46.660157-225.28125-19.632813-299.300782 66.394531-74.023437 86.03125-82.566406 210.527344-20.992187 305.863281 61.574219 95.332031 178.566406 138.75 287.429687 106.660157 108.859376-32.089844 183.597657-132.019532 183.617188-245.511719.117188-58.246094-19.847656-114.753907-56.527344-160h56.527344zm0 0"/><path d="m284.046875 256.042969c.019531-7.75 6.316406-14.015625 14.066406-14h69.328125c-7.394531-58.667969-59.121094-101.480469-118.136718-97.777344-59.015626 3.703125-104.984376 52.644531-104.984376 111.777344 0 59.132812 45.96875 108.078125 104.984376 111.78125 59.015624 3.703125 110.742187-39.113281 118.136718-97.78125h-69.328125c-7.75.019531-14.046875-6.25-14.066406-14zm0 0"/></g></svg>