<svg xmlns="http://www.w3.org/2000/svg" id="Capa_1" enable-background="new 0 0 512 512" height="512" viewBox="0 0 512 512" width="512"><g><path d="m256 .02c141.352 0 256 114.6 256 256 0 141.353-114.648 255.952-256 255.952s-256-114.6-256-255.953c0-141.4 114.648-255.999 256-255.999z" fill="#7a6d79"/><path d="m294.957 509.034c-12.695 1.935-25.709 2.946-38.953 2.946-141.355 0-256.004-114.606-256.004-255.961 0-141.398 114.649-255.989 256.004-255.989 13.244 0 26.258 1.011 38.953 2.946-122.867 18.776-217.022 124.904-217.022 253.043 0 128.096 94.155 234.239 217.022 253.015z" fill="#685e68"/><path d="m256 55.043c110.968 0 200.972 89.966 200.972 200.971 0 110.968-90.004 200.934-200.972 200.934s-200.972-89.965-200.972-200.934c0-111.005 90.004-200.971 200.972-200.971z" fill="#c8effe"/><path d="m287.349 454.508c-10.213 1.594-20.678 2.431-31.349 2.431-110.967 0-200.972-89.958-200.972-200.925 0-111.014 90.005-200.972 200.972-200.972 10.671 0 21.136.837 31.349 2.431-96.082 15.059-169.623 98.197-169.623 198.541 0 100.297 73.541 183.435 169.623 198.494z" fill="#99e6fc"/><path d="m200.799 311.186-52.071 52.081-4.073 4.073c-61.488-61.488-61.508-161.201-.02-222.689l5.475 1.93 40.46 14.303 10.219 39.922c-30.475 30.475-30.464 79.905.01 110.38z" fill="#bbec6c"/><path d="m117.725 256.016c0 39.434 11.367 76.217 31.003 107.251l-4.073 4.073c-61.488-61.488-61.508-161.201-.02-222.689l5.475 1.93c-20.479 31.481-32.385 69.066-32.385 109.435z" fill="#a2e62e"/><path d="m367.337 367.363-56.145-56.165c30.485-30.485 30.475-79.915 0-110.39l8.655-32.469 47.49-23.675c61.487 61.488 61.508 161.191 0 222.699z" fill="#fe646f"/><path d="m367.337 144.654v.01l-56.145 56.145c-30.475-30.475-79.905-30.485-110.4 0l-56.155-56.155c61.509-61.498 161.222-61.478 222.7 0z" fill="#ffe177"/><path d="m373.474 214.083c-6.277-4.748-15.095-4.132-20.652 1.441l-124.042 124.415c-17.06 17.111-15.089 45.345 4.182 59.921 19.271 14.576 46.975 8.786 58.796-12.287l85.951-153.225c3.851-6.865 2.042-15.518-4.235-20.265z" fill="#7a6d79"/><path d="m373.474 214.078c-1.828-1.382-6.867 2.093-11.824 8.116l-110.522 134.638c-15.207 18.518-23.76 38.794-18.163 43.02-19.28-14.577-21.251-42.807-4.185-59.913l124.042-124.418c5.557-5.577 14.374-6.186 20.652-1.443z" fill="#685e68"/><g fill="#7a6d79"><path d="m286.943 240.676h-61.886c-4.269 0-7.73-3.461-7.73-7.73s3.461-7.73 7.73-7.73h61.886c4.269 0 7.73 3.461 7.73 7.73s-3.461 7.73-7.73 7.73z"/><path d="m272.096 266.355h-32.192c-4.269 0-7.73-3.461-7.73-7.73s3.461-7.73 7.73-7.73h32.192c4.269 0 7.73 3.461 7.73 7.73s-3.461 7.73-7.73 7.73z"/></g><path d="m256 464.448c-114.952 0-208.472-93.503-208.472-208.434 0-114.951 93.52-208.471 208.472-208.471s208.472 93.52 208.472 208.471c0 114.931-93.52 208.434-208.472 208.434zm0-401.905c-106.681 0-193.472 86.791-193.472 193.471 0 106.66 86.791 193.434 193.472 193.434s193.472-86.774 193.472-193.434c0-106.68-86.791-193.471-193.472-193.471z" fill="#685e68"/></g></svg>