<svg xmlns:rdf="http://www.w3.org/1999/02/22-rdf-syntax-ns#" xmlns="http://www.w3.org/2000/svg" xmlns:sodipodi="http://inkscape.sourceforge.net/DTD/sodipodi-0.dtd" xmlns:cc="http://web.resource.org/cc/" xmlns:xlink="http://www.w3.org/1999/xlink" xmlns:dc="http://purl.org/dc/elements/1.1/" xmlns:svg="http://www.w3.org/2000/svg" id="svg2" viewBox="0 0 140 190" sodipodi:version="0.32" version="1.0" y="0" x="0" sodipodi:docname="back10.svg" sodipodi:docbase="/home/nicu/Desktop/cards">
  <sodipodi:namedview id="base" bordercolor="#666666" borderopacity="1.0" showgrid="false" pagecolor="#ffffff"/>
  <defs id="defs3">
    <linearGradient id="linearGradient4853" x1="2" gradientUnits="userSpaceOnUse" y1="63.1" gradientTransform="translate(0 -1)" x2="109" y2="128.7">
      <stop id="stop2062" stop-color="white" offset="0"/>
      <stop id="stop2064" stop-color="#ffffeb" offset="1"/>
    </linearGradient>
  </defs>
  <g id="g5630">
    <path id="rect2070" d="m21 5h103c8.86 0 16 7.136 16 16v153c0 8.86-7.14 16-16 16h-103c-8.864 0-16-7.14-16-16v-153c0-8.864 7.136-16 16-16z" fill-opacity=".49804"/>
    <path id="rect1300" d="m17 1h103c8.86 0 16 7.136 16 16v153c0 8.86-7.14 16-16 16h-103c-8.864 0-16-7.14-16-16v-153c0-8.864 7.136-16 16-16z" fill="#fff"/>
    <path id="path5624" d="m19 3h103c8.86 0 16 7.136 16 16v153c0 8.86-7.14 16-16 16h-103c-8.864 0-16-7.14-16-16v-153c0-8.864 7.136-16 16-16z" fill="#fff"/>
    <path id="rect1306" d="m18 2h103c8.86 0 16 7.136 16 16v153c0 8.86-7.14 16-16 16h-103c-8.864 0-16-7.14-16-16v-153c0-8.864 7.136-16 16-16z" fill="#fff"/>
  </g>
  <path id="path1385" d="m22.167 10h94.413c8.13 0 14.67 6.541 14.67 14.667v140.25c0 8.12-6.54 14.66-14.67 14.66h-94.413c-8.126 0-14.667-6.54-14.667-14.66v-140.25c0-8.129 6.541-14.67 14.667-14.67z" fill="#9b4c4c"/>
  <path id="path2154" d="m22.156 9.375c-8.461 0-15.281 6.82-15.281 15.281v140.25c0 8.46 6.82 15.31 15.281 15.31h94.434c8.46 0 15.29-6.85 15.29-15.31v-140.25c0-8.465-6.83-15.285-15.29-15.285h-94.434zm0 1.25h94.434c7.79 0 14.03 6.241 14.03 14.031v140.25c0 7.79-6.24 14.06-14.03 14.06h-94.434c-7.79 0-14.031-6.27-14.031-14.06v-140.25c0-7.794 6.241-14.035 14.031-14.035z" fill="#B15A61"/>
  <path id="path4078" fill-rule="evenodd" fill="#fff" d="m38.906 20c-3.373 0-6.335 2.079-8.375 5.156-2.039 3.078-3.25 7.205-3.25 11.75 0 4.153 2.18 8.941 4.219 13.532 1.675 3.771 2.957 7.155 3.375 9.624-0.227-0.169-0.391-0.228-0.656-0.468-1.177-1.066-2.631-2.749-4.157-4.5-1.525-1.752-3.135-3.561-4.718-5-1.584-1.439-3.121-2.625-4.969-2.625-3.373 0-6.335 2.078-8.375 5.156-2.0396 3.078-3.25 7.204-3.25 11.75s1.2104 8.672 3.25 11.75c2.04 3.078 5.002 5.156 8.375 5.156 1.884 0 3.444-1.225 5-2.719 1.556-1.493 3.095-3.392 4.594-5.218 1.498-1.826 2.938-3.576 4.156-4.719 0.534-0.501 0.996-0.814 1.375-1.031 0.061 1.735 0.179 5.275 0.219 9.594 0.023 2.482 0.019 4.951-0.063 6.843-0.041 0.946-0.082 1.744-0.156 2.313-0.037 0.284-0.092 0.525-0.125 0.656-1.932 2.394-4.031 2.188-4.031 2.188l-1.375-0.094 0.031 1.375 0.062 3.156 0.032 1.219h1.218l15.063-0.094h1.219l0.031-1.219 0.063-3.156 0.031-1.375-1.375 0.094s-2.117 0.272-4.063-2.188c0.166 0.21 0.1 0.142 0.063 0-0.037-0.141-0.082-0.358-0.125-0.656-0.087-0.597-0.186-1.455-0.25-2.438-0.128-1.964-0.176-4.481-0.219-7-0.043-2.518-0.062-5.026-0.062-6.937-0.001-1.157-0.003-1.468 0-2.063 0.036 0.016 0.02-0.02 0.062 0 0.399 0.196 0.975 0.618 1.594 1.188 1.237 1.139 2.721 2.875 4.25 4.688 1.529 1.812 3.11 3.707 4.687 5.187s3.126 2.687 5 2.687c3.374 0 6.336-2.078 8.375-5.156 2.04-3.077 3.25-7.204 3.25-11.75 0-4.545-1.21-8.672-3.25-11.75-2.039-3.077-5.001-5.156-8.375-5.156-1.826 0-3.362 1.135-4.937 2.531s-3.173 3.179-4.719 4.875c-1.546 1.697-3.055 3.31-4.313 4.344-0.421 0.346-0.725 0.524-1.062 0.719 0.53-2.536 1.989-5.991 3.812-9.813 2.178-4.564 4.469-9.332 4.469-13.5 0-4.545-1.21-8.672-3.25-11.75-2.039-3.077-5.001-5.156-8.375-5.156zm59.75 0.062l-1.281 2.563c-8.858 17.714-13.361 26.534-26.5 36.156l-1.344 1 1.313 1c12.548 9.595 19.445 16.664 26.781 32.625l1.156 2.532 1.125-2.563c6.564-15.19 12.854-23.84 26.754-33.219l1.75-1.187-1.88-0.969c-13.81-7.03-20.21-17.831-26.874-35.281l-1-2.657zm-59.75 2.438c2.353 0 4.565 1.441 6.282 4.031 1.716 2.59 2.843 6.278 2.843 10.375 0 3.187-2.052 7.866-4.219 12.406-2.166 4.541-4.467 8.864-4.5 12.469v0.875l0.782 0.313c0.86 0.353 1.778 0.225 2.562-0.094 0.785-0.319 1.509-0.828 2.25-1.437 1.483-1.22 3.011-2.892 4.563-4.594 1.551-1.702 3.119-3.436 4.531-4.688 1.412-1.251 2.699-1.906 3.281-1.906 2.353 0 4.565 1.441 6.281 4.031 1.717 2.59 2.844 6.278 2.844 10.375 0 4.098-1.127 7.785-2.844 10.375-1.716 2.59-3.928 4.031-6.281 4.031-0.591 0-1.87-0.675-3.281-2-1.411-1.324-2.972-3.157-4.5-4.968-1.528-1.812-3.034-3.616-4.469-4.938-0.717-0.66-1.4-1.191-2.156-1.562-0.594-0.292-1.303-0.405-2-0.313v-0.031l-0.313-0.031-1.374-0.125v1.406c0 0.016-0.001 1.455 0 3.375 0 1.92 0.019 4.429 0.062 6.969s0.117 5.086 0.25 7.125c0.066 1.019 0.146 1.912 0.25 2.625 0.052 0.356 0.081 0.682 0.156 0.968 0.076 0.287 0.141 0.532 0.438 0.907 1.768 2.235 3.564 2.724 4.812 2.906v0.875l-12.625 0.094v-0.875c1.253-0.191 3.076-0.702 4.844-2.938 0.292-0.368 0.334-0.622 0.406-0.906 0.073-0.284 0.143-0.591 0.188-0.937 0.09-0.694 0.144-1.545 0.187-2.532 0.086-1.974 0.086-4.463 0.063-6.968-0.047-5.012-0.216-10.099-0.25-11.094l-0.031-0.844-0.782-0.281c-0.883-0.33-1.803-0.156-2.562 0.219-0.759 0.374-1.446 0.927-2.156 1.593-1.421 1.333-2.909 3.144-4.407 4.969-1.497 1.825-3.018 3.668-4.406 5s-2.651 2.031-3.25 2.031c-2.353 0-4.565-1.441-6.281-4.031-1.717-2.59-2.844-6.278-2.844-10.375s1.127-7.785 2.844-10.375c1.716-2.59 3.928-4.031 6.281-4.031 0.57 0 1.862 0.679 3.281 1.969 1.419 1.289 2.979 3.065 4.5 4.812 1.522 1.747 3.002 3.444 4.375 4.688 0.687 0.621 1.341 1.163 2.063 1.5 0.722 0.336 1.675 0.489 2.5 0.031l0.594-0.344 0.062-0.687c0.223-3.58-1.934-7.92-3.969-12.5-2.034-4.581-4-9.322-4-12.532 0-4.097 1.128-7.785 2.844-10.375s3.929-4.031 6.281-4.031zm59.5 3.625c6.134 15.439 12.754 26.125 25.314 33.125-12.33 8.672-18.97 17.49-25.032 30.875-6.827-14.042-13.881-21.616-25.126-30.344 11.834-9.039 17.067-18.172 24.844-33.656zm-73.281 71.375c-1.928 0.013-4.004 0.524-6.219 1.531l-0.125 0.063-0.125 0.062c-5.934 4.614-8.526 10.174-8.656 16.064-0.1296 5.89 2.099 12.07 5.375 18.37 6.552 12.62 17.484 25.89 23.875 37.97l0.219 0.44 0.469 0.16 0.374 0.12 1 0.34 0.5-0.93c7.065-13.28 17.441-27.36 23.5-40.1 3.03-6.36 5.003-12.43 4.844-18-0.159-5.56-2.61-10.62-8.062-14.465l-0.094-0.063-0.094-0.031c-4.364-1.985-8.201-1.885-11.25-0.437-3.049 1.446-5.276 4.106-6.937 6.936-1.577 2.68-2.633 5.53-3.344 7.88-0.525-1.74-1.136-3.64-2.125-5.69-1.211-2.51-2.788-5.03-4.938-6.97-2.149-1.938-4.904-3.272-8.187-3.25zm73.781 0.406l-1.187 1.875c-5.144 8.179-15.869 19.209-22.781 29.339-3.457 5.07-6.017 9.94-6.344 14.41-0.164 2.24 0.271 4.38 1.5 6.25s3.207 3.42 5.937 4.6h0.063l0.062 0.03c6.526 2.12 11.438 1.01 14.875-1.47 1.939-1.4 3.322-3.18 4.469-4.97 0.051 1.96 0.136 4.25 0.156 6.65 0.022 2.66-0.02 5.34-0.125 7.38-0.052 1.02-0.127 1.87-0.219 2.47-0.041 0.27-0.088 0.47-0.124 0.59-2.472 2.16-5.532 2.06-5.532 2.06l-1.344-0.06 0.032 1.35 0.062 2.87 0.032 1.22h1.218l19.224-0.09h1.21l0.03-1.22 0.07-2.81 0.03-1.35-1.34 0.06s-3.03 0.07-5.5-2.09c-0.04-0.13-0.11-0.32-0.16-0.59-0.1-0.6-0.21-1.46-0.28-2.47-0.15-2.02-0.22-4.65-0.25-7.28-0.04-2.63-0.05-5.25-0.03-7.28v-0.29c1.18 1.91 2.65 3.89 4.68 5.57 3.13 2.57 7.43 4.15 12.13 2.18 3.24-1.3 5.56-2.9 7.09-4.84s2.21-4.2 2.16-6.53c-0.1-4.66-2.79-9.6-6.41-14.69-7.23-10.17-18.47-21.09-22.404-28.905l-1-1.969zm-73.781 2.094c2.611-0.018 4.7 1 6.5 2.62 1.8 1.63 3.256 3.87 4.375 6.19 2.238 4.65 3.131 9.51 3.188 9.85h2.437c0.066-0.39 1.235-6.75 4.25-11.88 1.507-2.56 3.445-4.77 5.844-5.9 2.37-1.13 5.219-1.346 9 0.34 4.874 3.46 6.798 7.57 6.937 12.47 0.141 4.91-1.68 10.65-4.625 16.84-5.654 11.89-15.331 25.32-22.469 38.35-6.64-12.02-16.864-24.69-22.968-36.44-3.178-6.12-5.209-11.94-5.094-17.16 0.114-5.19 2.25-9.83 7.656-14.06 1.884-0.83 3.51-1.21 4.969-1.22zm73.594 2.69c4.841 8.35 14.991 18.28 21.561 27.53 3.5 4.92 5.86 9.59 5.94 13.28 0.04 1.84-0.45 3.44-1.63 4.94-1.17 1.49-3.1 2.9-6.06 4.09-3.78 1.59-6.9 0.4-9.59-1.81-2.69-2.22-4.75-5.5-5.69-7.6l-0.34-0.74h-2.75l0.03 1.28c0 0.1-0.02 1.64-0.03 3.68-0.02 2.05-0.01 4.69 0.03 7.35 0.03 2.65 0.12 5.33 0.28 7.43 0.08 1.06 0.15 1.99 0.28 2.72 0.06 0.37 0.15 0.7 0.25 1 0.1 0.31 0.15 0.6 0.56 0.97 2.41 2.19 4.73 2.53 6.1 2.63v0.47l-16.785 0.09v-0.5c1.37-0.09 3.703-0.43 6.125-2.62 0.419-0.39 0.467-0.7 0.562-1 0.096-0.31 0.162-0.66 0.219-1.04 0.115-0.74 0.196-1.65 0.25-2.72 0.109-2.13 0.148-4.81 0.125-7.5-0.022-2.68-0.1-5.36-0.156-7.43-0.028-1.04-0.044-1.91-0.062-2.57-0.019-0.65-0.032-1.14-0.032-1.15l0.032-1.28h-2.157l-0.343 0.72c-1.225 2.68-3.032 5.95-5.876 8-2.821 2.03-6.656 3.03-12.531 1.15-2.408-1.03-3.942-2.28-4.843-3.65-0.902-1.37-1.227-2.91-1.094-4.72 0.265-3.62 2.553-8.24 5.906-13.16 6.323-9.27 16.06-19.46 21.719-27.84z"/>
  <metadata>
    <rdf:RDF>
      <cc:Work>
        <dc:format>image/svg+xml</dc:format>
        <dc:type rdf:resource="http://purl.org/dc/dcmitype/StillImage"/>
        <cc:license rdf:resource="http://creativecommons.org/licenses/publicdomain/"/>
        <dc:publisher>
          <cc:Agent rdf:about="http://openclipart.org/">
            <dc:title>Openclipart</dc:title>
          </cc:Agent>
        </dc:publisher>
        <dc:title>Card backs: simple red</dc:title>
        <dc:date>2009-03-23T14:07:01</dc:date>
        <dc:description>playing card backs for the "Ornamental", "White", "Simple" and "Bordered" sets</dc:description>
        <dc:source>http://openclipart.org/detail/23050/card-backs:-simple-red-by-nicubunu</dc:source>
        <dc:creator>
          <cc:Agent>
            <dc:title>nicubunu</dc:title>
          </cc:Agent>
        </dc:creator>
        <dc:subject>
          <rdf:Bag>
            <rdf:li>bordered deck</rdf:li>
            <rdf:li>card</rdf:li>
            <rdf:li>cards</rdf:li>
            <rdf:li>clip art</rdf:li>
            <rdf:li>clipart</rdf:li>
            <rdf:li>deck</rdf:li>
            <rdf:li>gambling</rdf:li>
            <rdf:li>game</rdf:li>
            <rdf:li>image</rdf:li>
            <rdf:li>media</rdf:li>
            <rdf:li>ornamental deck</rdf:li>
            <rdf:li>play</rdf:li>
            <rdf:li>playing cards</rdf:li>
            <rdf:li>png</rdf:li>
            <rdf:li>public domain</rdf:li>
            <rdf:li>simple deck</rdf:li>
            <rdf:li>svg</rdf:li>
            <rdf:li>white deck</rdf:li>
          </rdf:Bag>
        </dc:subject>
      </cc:Work>
      <cc:License rdf:about="http://creativecommons.org/licenses/publicdomain/">
        <cc:permits rdf:resource="http://creativecommons.org/ns#Reproduction"/>
        <cc:permits rdf:resource="http://creativecommons.org/ns#Distribution"/>
        <cc:permits rdf:resource="http://creativecommons.org/ns#DerivativeWorks"/>
      </cc:License>
    </rdf:RDF>
  </metadata>
</svg>